<?xml version="1.0" standalone="no"?>
<!DOCTYPE svg PUBLIC "-//W3C//DTD SVG 20010904//EN"
 "http://www.w3.org/TR/2001/REC-SVG-20010904/DTD/svg10.dtd">
<svg version="1.0" xmlns="http://www.w3.org/2000/svg"
 width="1024.000000pt" height="1024.000000pt" viewBox="0 0 1024.000000 1024.000000"
 preserveAspectRatio="xMidYMid meet">

<g transform="translate(0.000000,1024.000000) scale(0.100000,-0.100000)"
fill="#000000" stroke="none">
<path d="M0 5120 l0 -5120 5120 0 5120 0 0 5120 0 5120 -5120 0 -5120 0 0
-5120z m6293 2255 c255 -44 497 -171 668 -351 154 -162 241 -323 294 -542 20
-85 33 -97 118 -107 384 -45 755 -368 881 -767 132 -420 32 -865 -265 -1183
-200 -214 -448 -328 -739 -342 -144 -6 -181 3 -223 58 -33 45 -41 88 -26 139
23 75 98 120 201 120 69 0 186 25 269 57 229 90 407 291 486 550 23 78 26 104
26 228 0 123 -3 151 -27 230 -70 233 -219 415 -420 514 -99 49 -215 78 -362
89 -180 14 -208 41 -225 218 -18 194 -89 350 -223 491 -121 128 -256 210 -421
254 -112 31 -317 31 -427 1 -332 -91 -579 -355 -644 -690 -11 -61 -14 -260
-14 -1120 0 -1150 0 -1155 -60 -1335 -125 -373 -454 -676 -827 -763 -172 -40
-410 -35 -568 11 -403 117 -730 460 -806 845 -16 84 -38 105 -114 115 -257 32
-557 226 -723 468 -130 188 -211 444 -212 664 0 92 33 283 66 381 58 174 171
351 306 479 162 153 340 246 543 283 99 18 109 25 171 118 71 108 194 236 291
303 335 232 779 245 1111 32 68 -43 149 -119 169 -157 47 -91 -54 -226 -169
-226 -35 0 -50 8 -154 83 -161 116 -385 148 -579 82 -197 -66 -332 -186 -437
-387 -47 -92 -95 -134 -161 -142 -294 -36 -407 -81 -555 -221 -177 -166 -258
-344 -269 -585 -7 -146 10 -250 59 -367 123 -296 376 -472 737 -513 164 -18
200 -56 215 -222 9 -93 50 -227 96 -318 187 -358 622 -519 1009 -374 248 93
432 301 504 569 21 79 21 97 27 1210 5 1026 8 1136 23 1195 48 179 107 311
198 440 64 92 191 220 279 282 127 90 315 170 475 202 96 19 322 20 428 1z
m-4817 -1333 c24 -51 38 -62 81 -62 73 0 81 -23 28 -82 -35 -38 -35 -40 -29
-103 6 -62 6 -65 -15 -65 -12 0 -40 10 -61 23 l-40 22 -44 -23 c-69 -37 -82
-29 -78 48 3 63 2 66 -32 99 -59 57 -50 72 54 83 18 2 31 14 45 43 11 22 24
46 29 53 14 23 41 8 62 -36z m2960 -860 c25 -52 38 -62 85 -62 67 0 75 -32 23
-90 -34 -38 -35 -41 -29 -93 9 -69 -2 -77 -66 -47 l-49 23 -49 -23 c-64 -30
-75 -22 -67 49 6 56 6 57 -34 96 -59 58 -54 72 28 83 42 6 49 11 67 47 11 22
24 46 29 53 14 23 41 8 62 -36z m1385 -652 c14 -32 31 -52 43 -55 12 -3 39 -9
61 -13 53 -10 55 -31 9 -82 -35 -38 -36 -43 -31 -91 10 -82 -9 -98 -68 -59
-38 25 -56 25 -106 -1 -61 -31 -73 -21 -65 53 l7 61 -42 43 c-53 54 -48 69 26
79 l56 7 24 54 c32 72 55 73 86 4z m431 -677 c9 -10 32 -53 53 -96 42 -89 57
-100 160 -111 96 -11 114 -16 126 -38 9 -17 2 -29 -55 -88 -93 -96 -97 -110
-78 -239 15 -98 15 -104 -2 -117 -23 -16 -44 -8 -133 48 -90 57 -115 56 -233
-12 -84 -49 -92 -52 -108 -37 -15 15 -15 23 1 105 28 144 28 143 -58 231 -71
74 -90 110 -65 126 6 4 56 13 112 21 66 9 108 20 121 31 11 10 35 51 54 92 18
41 38 80 44 88 16 18 43 16 61 -4z"/>
</g>
</svg>
