<?xml version="1.0" standalone="no"?>
<!DOCTYPE svg PUBLIC "-//W3C//DTD SVG 20010904//EN"
 "http://www.w3.org/TR/2001/REC-SVG-20010904/DTD/svg10.dtd">
<svg version="1.0" xmlns="http://www.w3.org/2000/svg"
 width="2560.000000pt" height="2544.000000pt" viewBox="0 0 2560.000000 2544.000000"
 preserveAspectRatio="xMidYMid meet">

<g transform="translate(0.000000,2544.000000) scale(0.100000,-0.100000)"
fill="#000000" stroke="none">
<path d="M14990 18094 c-25 -12 -74 -18 -175 -22 -120 -4 -144 -7 -169 -25
-22 -15 -50 -22 -110 -25 -63 -3 -86 -9 -103 -25 -14 -12 -41 -22 -72 -25 -37
-3 -52 -9 -56 -22 -6 -18 -44 -30 -95 -30 -17 0 -33 -8 -41 -21 -10 -15 -29
-23 -63 -26 -27 -4 -57 -14 -67 -24 -10 -10 -35 -21 -56 -25 -21 -3 -47 -15
-58 -24 -11 -10 -32 -22 -47 -25 -15 -4 -29 -13 -32 -20 -2 -7 -22 -19 -43
-26 -21 -6 -44 -20 -51 -30 -6 -9 -26 -20 -42 -24 -17 -4 -41 -17 -54 -28 -64
-60 -88 -77 -106 -77 -11 0 -24 -9 -30 -20 -6 -11 -16 -20 -23 -20 -7 0 -24
-12 -38 -27 -34 -37 -123 -113 -157 -133 -15 -9 -33 -24 -41 -33 -7 -10 -19
-17 -27 -17 -7 0 -15 -9 -19 -19 -3 -11 -15 -23 -25 -26 -10 -3 -22 -15 -25
-25 -3 -10 -15 -22 -26 -25 -10 -4 -19 -10 -19 -14 0 -13 -82 -120 -137 -178
-18 -18 -33 -38 -33 -43 0 -6 -7 -10 -15 -10 -9 0 -20 -11 -25 -25 -5 -14 -16
-25 -24 -25 -8 0 -17 -14 -22 -32 -3 -18 -17 -43 -30 -55 -13 -12 -24 -29 -24
-37 0 -8 -9 -20 -19 -26 -12 -6 -22 -26 -26 -51 -5 -27 -13 -43 -25 -46 -12
-3 -20 -18 -24 -44 -4 -26 -14 -44 -31 -55 -16 -11 -25 -26 -25 -43 0 -17 -10
-36 -25 -49 -14 -12 -25 -32 -25 -45 0 -13 -11 -33 -25 -45 -17 -15 -25 -32
-25 -55 0 -23 -8 -40 -25 -55 -19 -16 -25 -32 -25 -61 0 -28 -6 -42 -20 -52
-16 -11 -23 -30 -29 -86 -5 -53 -12 -77 -25 -86 -15 -11 -19 -32 -23 -108 -4
-74 -9 -100 -25 -123 -19 -26 -22 -50 -28 -220 -5 -156 -9 -197 -24 -225 -18
-33 -18 -150 -21 -2737 l-3 -2703 -21 -30 c-16 -22 -24 -51 -28 -103 -3 -49
-11 -82 -25 -101 -19 -28 -25 -51 -27 -114 0 -18 -9 -40 -20 -50 -11 -11 -22
-39 -26 -70 -4 -31 -14 -58 -26 -69 -11 -10 -22 -34 -25 -55 -4 -21 -17 -48
-30 -60 -13 -12 -24 -28 -24 -35 0 -7 -8 -19 -19 -26 -10 -7 -22 -24 -26 -38
-7 -24 -18 -38 -76 -98 -14 -15 -28 -35 -32 -44 -3 -10 -13 -18 -21 -18 -8 0
-19 -13 -25 -30 -5 -16 -15 -30 -21 -30 -5 0 -17 -18 -26 -40 -9 -22 -22 -40
-30 -40 -8 0 -14 -5 -14 -11 0 -8 -77 -86 -216 -219 -12 -11 -35 -23 -52 -26
-18 -4 -34 -14 -37 -25 -4 -10 -17 -22 -31 -25 -13 -4 -29 -15 -34 -25 -6 -10
-26 -21 -45 -25 -20 -3 -40 -16 -50 -30 -10 -15 -25 -24 -42 -24 -15 0 -36
-11 -49 -25 -16 -18 -34 -25 -59 -25 -19 0 -35 -4 -35 -9 0 -21 -33 -41 -68
-41 -23 0 -44 -8 -59 -22 -19 -18 -39 -23 -95 -26 -57 -4 -75 -9 -88 -25 -13
-16 -32 -21 -96 -25 -62 -3 -84 -9 -102 -26 -23 -20 -31 -21 -327 -21 -299 0
-304 0 -334 23 -20 14 -45 22 -73 22 -59 1 -117 15 -131 33 -7 9 -37 17 -77
20 -49 4 -69 10 -81 26 -10 12 -28 21 -41 21 -54 0 -98 13 -103 30 -4 12 -20
21 -45 25 -22 4 -46 15 -53 24 -6 10 -22 21 -35 25 -12 4 -27 16 -32 27 -6 11
-21 19 -36 19 -14 0 -35 11 -47 24 -12 13 -33 27 -47 31 -32 10 -67 36 -136
103 -30 28 -59 52 -64 52 -6 0 -10 5 -10 11 0 13 -78 89 -91 89 -5 0 -9 4 -9
10 0 5 -45 54 -99 108 -55 54 -103 110 -106 124 -4 15 -15 34 -26 44 -10 9
-19 23 -19 30 0 8 -11 21 -25 30 -15 10 -25 26 -25 39 0 13 -11 36 -24 52 -13
15 -26 42 -30 59 -4 18 -15 39 -26 49 -10 9 -21 31 -24 49 -4 18 -15 41 -26
51 -11 10 -20 30 -20 44 0 14 -11 49 -24 77 -13 28 -27 71 -31 95 -4 24 -15
73 -25 109 -20 68 -35 191 -45 370 -11 188 -43 297 -106 361 -9 9 -21 23 -25
31 -5 8 -28 27 -52 42 -24 15 -45 33 -49 41 -3 10 -20 15 -48 15 -32 0 -52 7
-73 25 -30 25 -32 25 -214 25 -178 0 -187 1 -232 25 -39 21 -61 25 -131 25
-74 0 -86 3 -99 21 -10 15 -30 23 -73 28 -41 5 -66 14 -81 29 -13 13 -34 22
-52 22 -19 0 -34 7 -42 20 -8 12 -28 23 -51 27 -21 3 -43 13 -50 22 -7 9 -31
22 -53 29 -23 7 -44 19 -47 27 -3 7 -22 17 -42 21 -21 4 -42 16 -51 29 -8 13
-26 26 -40 29 -13 4 -24 11 -24 16 0 5 -15 16 -34 24 -19 8 -55 35 -80 60 -25
25 -50 46 -56 46 -6 0 -15 11 -20 25 -5 14 -16 25 -25 25 -9 0 -20 11 -25 25
-5 14 -16 25 -25 25 -9 0 -20 11 -25 25 -5 14 -16 25 -23 25 -8 0 -19 11 -25
25 -6 14 -18 25 -27 25 -8 0 -15 5 -15 10 0 6 -11 22 -25 36 -14 14 -32 41
-40 60 -8 19 -21 37 -30 40 -8 3 -15 13 -15 21 0 8 -11 29 -25 47 -14 18 -25
38 -25 44 0 6 -9 20 -21 31 -21 19 -44 57 -74 121 -10 19 -24 39 -32 45 -8 6
-19 33 -24 60 -5 27 -17 58 -28 69 -10 12 -21 43 -25 70 -3 27 -14 64 -25 81
-10 17 -21 54 -25 81 -4 27 -16 81 -27 119 -12 44 -23 135 -30 247 -30 475 53
817 299 1228 100 168 265 361 405 475 50 42 99 81 107 89 23 20 189 126 198
126 4 0 23 10 42 23 19 13 69 36 110 52 41 15 95 37 120 48 75 32 212 74 265
82 27 4 72 15 100 25 32 12 95 21 175 25 79 5 136 13 154 22 16 9 58 19 92 23
60 8 85 20 159 79 34 27 125 141 125 156 0 21 112 231 167 314 137 207 310
405 452 516 35 28 89 70 120 95 65 52 210 140 230 140 7 0 28 8 45 19 17 10
52 21 79 25 26 3 64 14 85 25 23 12 76 24 142 30 58 6 148 16 202 22 80 9 118
8 225 -6 70 -9 157 -19 193 -22 36 -3 78 -13 95 -24 17 -10 51 -21 75 -25 25
-4 59 -15 76 -25 17 -11 38 -19 45 -19 14 0 31 -8 109 -54 25 -14 62 -34 83
-45 21 -10 45 -26 55 -35 35 -34 95 -76 108 -76 8 0 24 -11 36 -25 12 -14 28
-25 35 -25 8 0 28 -10 44 -22 29 -22 41 -23 182 -23 148 0 154 1 211 29 117
58 187 147 223 286 28 107 28 143 1 244 -21 77 -69 166 -89 166 -5 0 -14 11
-19 25 -5 14 -15 25 -21 25 -6 0 -30 19 -52 43 -23 23 -57 50 -77 60 -72 37
-90 48 -100 66 -5 10 -25 22 -45 25 -19 4 -39 15 -45 26 -6 11 -17 20 -24 20
-7 0 -25 11 -40 25 -15 14 -38 25 -51 25 -15 0 -31 10 -41 25 -11 17 -25 25
-46 25 -18 0 -38 9 -52 25 -16 17 -34 25 -58 25 -21 0 -47 10 -68 25 -23 17
-47 25 -76 25 -28 0 -51 7 -70 22 -23 18 -46 24 -117 29 -65 5 -93 11 -108 25
-18 17 -48 20 -237 28 -248 11 -299 11 -507 2 -183 -8 -210 -12 -231 -34 -13
-12 -41 -18 -113 -22 -80 -4 -101 -9 -125 -27 -19 -16 -42 -23 -70 -23 -29 0
-53 -8 -76 -25 -23 -17 -47 -25 -76 -25 -33 0 -45 -5 -58 -25 -12 -18 -25 -25
-50 -25 -25 0 -38 -7 -50 -25 -11 -17 -26 -25 -44 -25 -18 0 -37 -9 -50 -25
-12 -14 -27 -25 -33 -25 -7 0 -27 -11 -45 -25 -18 -14 -39 -25 -47 -25 -8 0
-22 -11 -31 -25 -9 -14 -21 -25 -27 -25 -6 0 -25 -11 -43 -25 -18 -14 -40 -25
-49 -25 -10 0 -17 -7 -17 -15 0 -8 -10 -19 -22 -26 -11 -6 -43 -33 -69 -60
-27 -27 -53 -49 -58 -49 -5 0 -13 -9 -16 -20 -3 -11 -10 -20 -15 -20 -13 0
-225 -213 -233 -234 -4 -9 -13 -16 -21 -16 -8 0 -18 -9 -21 -20 -3 -11 -15
-25 -26 -31 -11 -5 -24 -21 -29 -35 -5 -13 -16 -24 -25 -24 -8 0 -15 -7 -15
-15 0 -24 -22 -65 -36 -65 -6 0 -17 -13 -23 -30 -5 -16 -17 -30 -25 -30 -9 0
-18 -11 -22 -25 -3 -14 -14 -30 -24 -35 -10 -5 -21 -26 -24 -46 -5 -24 -14
-38 -26 -41 -11 -3 -22 -15 -26 -26 -8 -27 -108 -127 -127 -127 -7 0 -23 -11
-35 -25 -18 -21 -31 -25 -74 -25 -40 0 -57 -5 -75 -22 -18 -17 -42 -24 -99
-29 -55 -6 -79 -12 -89 -25 -10 -14 -33 -20 -100 -25 -72 -6 -89 -10 -101 -28
-11 -15 -26 -21 -54 -21 -27 0 -45 -7 -59 -21 -11 -12 -41 -25 -68 -30 -26 -5
-53 -16 -60 -25 -6 -9 -31 -20 -54 -25 -24 -6 -49 -18 -56 -28 -7 -10 -29 -21
-50 -24 -23 -4 -43 -15 -51 -27 -7 -11 -21 -20 -32 -20 -10 0 -24 -9 -30 -20
-6 -10 -26 -22 -45 -26 -20 -3 -40 -16 -50 -30 -8 -13 -20 -24 -26 -24 -6 0
-24 -11 -41 -25 -16 -14 -38 -25 -48 -25 -10 0 -21 -9 -25 -19 -3 -11 -14 -23
-25 -26 -10 -3 -25 -17 -34 -30 -9 -14 -21 -25 -26 -25 -5 0 -20 -10 -34 -22
-49 -45 -94 -78 -105 -78 -5 0 -15 -9 -21 -19 -5 -11 -19 -22 -29 -26 -11 -3
-23 -15 -26 -25 -3 -10 -15 -22 -25 -25 -10 -3 -22 -15 -25 -25 -3 -10 -14
-22 -24 -25 -10 -3 -23 -17 -29 -30 -6 -14 -18 -25 -27 -25 -8 0 -15 -6 -15
-14 0 -8 -13 -28 -30 -46 -16 -18 -30 -38 -30 -46 0 -7 -11 -21 -25 -30 -13
-9 -27 -24 -30 -35 -4 -10 -13 -19 -21 -19 -8 0 -18 -10 -23 -22 -5 -13 -19
-31 -30 -40 -12 -10 -21 -26 -21 -36 0 -10 -11 -29 -25 -42 -14 -13 -25 -29
-25 -36 0 -7 -8 -19 -19 -26 -10 -7 -22 -28 -26 -46 -3 -18 -18 -40 -31 -48
-13 -9 -24 -24 -24 -33 0 -10 -11 -32 -25 -51 -14 -19 -25 -42 -25 -52 0 -10
-9 -27 -21 -39 -11 -11 -23 -37 -26 -57 -3 -20 -16 -47 -29 -60 -16 -15 -24
-34 -24 -57 0 -23 -7 -39 -21 -48 -13 -10 -23 -30 -26 -57 -4 -29 -12 -44 -23
-47 -13 -4 -20 -20 -25 -60 -4 -34 -14 -62 -27 -75 -15 -15 -21 -38 -26 -100
-3 -57 -10 -85 -22 -97 -13 -12 -19 -41 -24 -111 -5 -71 -12 -103 -29 -130
-22 -35 -22 -39 -19 -413 2 -347 4 -380 21 -415 13 -25 22 -70 26 -137 5 -76
11 -105 25 -120 13 -14 21 -44 26 -94 4 -49 13 -80 24 -91 11 -11 20 -42 25
-86 5 -50 12 -72 26 -82 13 -9 19 -25 19 -51 0 -30 6 -42 25 -55 17 -11 25
-26 25 -45 0 -17 11 -42 25 -59 14 -17 25 -41 25 -54 0 -13 11 -39 25 -58 14
-19 25 -41 25 -50 0 -10 11 -29 25 -44 14 -15 25 -38 25 -52 0 -17 8 -27 25
-34 14 -5 25 -16 25 -24 0 -8 11 -27 25 -42 14 -15 25 -38 25 -51 0 -16 8 -27
25 -33 14 -5 25 -16 25 -23 0 -7 11 -23 24 -34 13 -12 27 -35 31 -52 4 -17 13
-31 21 -31 8 0 19 -11 24 -25 5 -14 17 -28 26 -32 8 -3 20 -16 25 -29 4 -13
15 -24 24 -24 9 0 20 -11 25 -25 5 -14 16 -25 25 -25 8 0 15 -4 15 -10 0 -11
223 -240 234 -240 4 0 38 -31 76 -69 37 -38 77 -72 88 -75 10 -4 27 -15 37
-26 10 -11 24 -20 31 -20 7 0 27 -12 43 -27 65 -60 85 -73 107 -73 14 0 30
-10 40 -25 10 -15 26 -25 40 -25 13 0 32 -8 42 -17 24 -25 138 -83 161 -83 11
0 33 -11 49 -25 18 -15 42 -25 61 -25 18 0 38 -8 50 -21 12 -13 38 -23 75 -28
38 -5 63 -15 77 -29 14 -15 32 -22 58 -22 23 0 48 -8 63 -20 14 -10 45 -22 69
-26 24 -3 69 -14 99 -24 30 -11 81 -22 114 -25 50 -6 64 -12 98 -44 44 -43 58
-82 58 -164 0 -44 5 -65 20 -84 15 -20 20 -41 20 -89 0 -51 4 -68 24 -91 14
-17 25 -46 28 -76 4 -30 13 -55 26 -67 11 -10 23 -39 27 -66 4 -28 15 -54 26
-63 12 -9 23 -34 26 -58 4 -29 11 -43 24 -46 13 -3 21 -18 25 -46 4 -24 14
-46 24 -51 10 -5 21 -26 25 -47 4 -20 15 -43 26 -51 10 -7 19 -19 19 -25 0 -7
11 -29 25 -49 14 -20 25 -42 25 -48 0 -7 12 -25 28 -40 58 -60 70 -76 77 -100
4 -14 16 -31 26 -38 11 -7 19 -18 19 -24 0 -5 12 -23 28 -38 46 -49 62 -70 75
-98 12 -28 214 -232 229 -232 4 0 22 -14 40 -30 17 -17 45 -41 62 -53 16 -12
41 -34 55 -48 14 -14 34 -28 44 -32 9 -3 17 -13 17 -21 0 -8 14 -19 30 -25 17
-5 30 -15 30 -21 0 -6 17 -18 37 -27 21 -8 44 -24 51 -34 7 -10 19 -19 27 -19
8 0 19 -9 25 -20 6 -10 28 -24 50 -30 22 -6 44 -19 50 -30 6 -11 14 -19 18
-19 23 4 43 -3 59 -20 10 -10 32 -21 48 -25 17 -4 39 -16 50 -25 11 -10 33
-21 49 -25 16 -4 40 -16 54 -26 13 -11 40 -22 61 -26 20 -3 41 -13 48 -21 7
-9 33 -19 59 -24 26 -5 56 -17 66 -26 10 -9 45 -20 79 -24 34 -4 68 -14 79
-24 12 -11 46 -20 92 -25 41 -5 90 -17 113 -29 27 -15 58 -21 100 -21 34 0 86
-8 116 -18 47 -15 97 -17 384 -17 253 0 338 3 365 14 19 7 71 17 116 21 44 4
101 17 127 29 26 12 66 21 94 21 28 0 65 8 86 19 20 10 54 22 74 25 43 7 152
46 231 82 29 13 58 24 65 24 7 0 28 11 47 25 19 14 41 25 51 25 9 0 28 9 42
21 15 11 43 23 62 26 20 3 41 14 48 23 7 10 27 21 44 24 18 4 35 12 39 17 5 9
22 21 124 89 180 119 296 215 455 374 220 221 402 455 471 606 9 19 22 42 28
50 21 24 106 189 138 265 79 189 164 492 195 690 8 55 20 123 26 150 6 33 12
965 16 2790 l6 2740 23 95 c13 52 31 124 39 160 37 157 46 187 63 225 10 22
21 51 25 65 8 28 111 228 127 248 6 7 18 26 27 42 93 170 353 446 541 574 30
21 57 41 60 45 9 13 182 107 260 140 41 18 98 44 126 57 28 13 61 24 73 24 12
0 41 10 64 21 24 13 76 26 122 31 44 5 105 15 135 23 156 40 568 38 705 -5 33
-10 94 -21 135 -24 53 -4 78 -10 87 -22 6 -9 32 -20 57 -25 26 -5 58 -18 74
-29 15 -11 45 -23 67 -25 21 -3 47 -14 56 -24 10 -11 33 -22 51 -26 18 -4 42
-15 53 -24 19 -17 65 -46 127 -81 53 -30 154 -101 203 -143 68 -58 275 -267
275 -278 0 -5 11 -16 25 -25 13 -9 27 -24 30 -35 4 -10 12 -19 20 -19 7 0 18
-15 25 -34 6 -18 20 -42 30 -51 11 -10 20 -23 20 -30 0 -6 11 -21 25 -33 14
-12 25 -31 25 -42 0 -12 11 -31 24 -43 13 -13 27 -39 31 -59 4 -22 14 -38 25
-41 12 -3 19 -19 24 -51 5 -29 14 -50 25 -56 13 -6 20 -26 25 -71 4 -44 11
-66 25 -75 14 -10 20 -32 25 -100 5 -59 13 -95 26 -113 14 -20 19 -52 23 -148
5 -93 10 -129 24 -149 13 -20 19 -58 24 -151 6 -109 9 -127 28 -144 12 -11 21
-32 21 -48 0 -16 9 -36 21 -47 12 -10 28 -32 36 -47 8 -16 31 -35 51 -44 20
-8 41 -22 47 -30 7 -9 38 -18 81 -23 38 -4 85 -15 104 -23 22 -9 89 -18 185
-22 101 -5 167 -13 201 -26 29 -9 79 -20 111 -24 32 -4 78 -16 103 -27 25 -10
65 -22 90 -25 25 -3 56 -14 69 -24 12 -10 39 -22 60 -25 20 -4 52 -18 71 -30
19 -13 45 -24 57 -24 12 0 34 -11 49 -25 15 -14 38 -25 50 -25 13 0 33 -9 44
-20 12 -12 32 -25 45 -30 14 -5 25 -16 25 -23 0 -8 10 -19 23 -26 12 -6 38
-23 57 -37 19 -14 46 -33 60 -42 13 -9 36 -29 51 -44 15 -16 30 -28 33 -28 10
0 186 -179 186 -189 0 -5 9 -11 20 -14 11 -3 20 -12 20 -20 0 -8 11 -22 25
-31 14 -9 25 -26 25 -37 0 -11 11 -30 25 -43 14 -13 25 -28 25 -34 0 -7 11
-19 25 -28 14 -9 25 -22 25 -29 0 -6 11 -25 25 -41 14 -16 25 -35 25 -42 0 -6
11 -21 24 -33 14 -12 26 -37 30 -59 4 -23 14 -43 25 -49 12 -7 20 -26 24 -60
3 -29 14 -58 25 -69 11 -11 21 -40 25 -70 4 -32 14 -60 27 -74 12 -13 20 -36
21 -57 1 -81 11 -134 29 -159 18 -25 20 -49 24 -342 4 -338 0 -403 -29 -424
-15 -11 -19 -32 -23 -120 -4 -91 -7 -109 -24 -120 -12 -8 -21 -28 -22 -48 -2
-18 -4 -41 -5 -50 0 -10 -10 -27 -22 -39 -11 -11 -23 -37 -26 -57 -3 -20 -16
-47 -29 -60 -14 -13 -24 -34 -24 -51 0 -17 -10 -36 -25 -49 -14 -12 -25 -29
-25 -38 0 -9 -11 -29 -25 -46 -14 -16 -25 -35 -25 -43 0 -7 -11 -20 -25 -29
-14 -9 -25 -23 -25 -30 0 -7 -7 -19 -16 -27 -9 -7 -23 -30 -31 -51 -8 -21 -21
-38 -29 -38 -8 0 -14 -4 -14 -9 0 -13 -228 -241 -240 -241 -6 0 -15 -11 -20
-25 -5 -14 -16 -25 -25 -25 -8 0 -22 -11 -31 -24 -8 -14 -30 -28 -47 -32 -18
-4 -38 -15 -45 -25 -7 -11 -19 -19 -26 -19 -8 0 -21 -11 -29 -24 -9 -13 -30
-26 -48 -30 -18 -3 -38 -14 -45 -24 -7 -10 -30 -24 -52 -30 -22 -7 -43 -19
-46 -27 -3 -8 -14 -15 -24 -15 -11 0 -32 -10 -47 -21 -15 -12 -48 -26 -73 -31
-26 -4 -53 -16 -59 -25 -8 -11 -36 -19 -79 -25 -48 -5 -71 -13 -80 -27 -11
-16 -29 -19 -113 -23 -81 -3 -104 -7 -121 -23 -19 -17 -42 -20 -181 -25 -150
-5 -160 -7 -175 -28 -11 -16 -25 -22 -51 -22 -23 0 -45 -9 -65 -25 -16 -14
-35 -25 -42 -25 -20 0 -84 -65 -91 -92 -4 -14 -18 -35 -31 -47 -18 -16 -24
-31 -24 -63 0 -24 -7 -67 -14 -96 -12 -44 -12 -60 -2 -90 7 -20 16 -66 19
-101 5 -48 12 -68 27 -78 11 -8 20 -20 20 -27 0 -18 99 -126 116 -126 7 0 21
-11 30 -25 13 -20 25 -25 56 -25 21 0 51 -8 65 -17 21 -14 48 -17 137 -16 61
0 129 6 151 13 22 6 95 15 161 20 67 4 155 17 195 28 41 11 101 27 134 35 110
28 206 57 228 71 12 7 37 16 55 20 19 3 45 15 59 26 14 11 35 20 47 20 12 0
66 23 121 51 55 29 128 66 161 83 34 18 69 40 78 49 10 9 23 17 29 17 7 0 37
18 67 40 30 22 69 47 85 56 17 9 62 42 100 73 39 32 92 75 120 97 72 57 254
235 295 289 19 25 67 85 106 133 77 95 150 198 184 258 12 22 33 59 47 84 14
25 51 97 83 160 52 103 76 156 139 310 26 62 69 215 77 270 3 25 14 73 25 107
10 34 21 97 24 140 3 43 13 116 23 163 20 103 23 548 4 645 -7 33 -17 107 -23
165 -6 58 -18 123 -26 145 -8 22 -19 71 -24 109 -6 38 -18 86 -29 105 -10 20
-21 56 -25 81 -3 25 -14 59 -25 75 -11 17 -20 39 -20 50 0 11 -11 40 -24 65
-13 25 -29 62 -35 82 -7 20 -18 42 -26 48 -8 7 -17 27 -21 45 -3 19 -15 41
-25 51 -10 9 -19 24 -19 33 0 9 -10 32 -22 51 -21 34 -44 74 -75 133 -8 15
-24 33 -34 40 -10 6 -19 18 -19 24 0 7 -11 23 -25 35 -14 12 -25 29 -25 38 0
10 -13 31 -30 48 -16 18 -30 36 -30 42 0 5 -7 10 -15 10 -9 0 -20 11 -24 24
-5 13 -17 26 -25 29 -9 4 -21 18 -28 32 -6 14 -17 25 -23 25 -7 0 -18 14 -26
31 -7 18 -23 42 -36 55 -13 13 -23 28 -23 34 0 5 -7 10 -15 10 -9 0 -21 11
-27 25 -6 13 -19 27 -29 30 -10 3 -21 15 -24 26 -4 10 -10 19 -15 19 -5 0 -33
23 -61 50 -28 28 -56 50 -61 50 -6 0 -26 14 -45 30 -18 17 -38 30 -43 30 -5 0
-12 9 -15 20 -3 11 -13 20 -20 20 -8 0 -22 11 -30 24 -10 14 -30 27 -50 30
-19 4 -39 15 -45 25 -5 10 -20 21 -34 25 -13 3 -26 14 -28 24 -3 11 -18 22
-34 26 -16 4 -37 16 -47 27 -10 10 -24 19 -32 19 -8 0 -26 11 -41 25 -15 14
-39 25 -55 25 -16 0 -40 11 -55 25 -15 14 -39 25 -55 25 -15 0 -41 11 -57 25
-17 14 -39 25 -50 25 -12 0 -33 11 -48 25 -18 17 -38 25 -62 25 -22 0 -45 9
-64 25 -23 19 -41 25 -79 25 -37 0 -54 5 -71 22 -17 17 -38 23 -106 28 -63 5
-88 11 -97 24 -8 10 -33 19 -65 23 -51 6 -127 40 -149 67 -6 7 -20 57 -31 112
-11 54 -25 113 -31 129 -5 17 -16 63 -24 104 -8 41 -21 83 -28 95 -8 12 -17
41 -21 65 -4 24 -15 56 -25 70 -10 14 -21 42 -25 62 -3 20 -15 44 -26 54 -11
10 -20 26 -20 36 0 17 -46 121 -71 159 -5 8 -18 33 -28 55 -10 22 -25 46 -34
53 -9 8 -19 26 -22 42 -3 15 -15 36 -26 46 -10 9 -19 23 -19 30 0 7 -11 26
-25 42 -14 17 -25 34 -25 40 0 5 -25 35 -55 66 -30 30 -55 62 -55 71 0 8 -4
15 -10 15 -5 0 -19 18 -30 40 -11 22 -25 40 -30 40 -6 0 -16 11 -22 25 -6 13
-19 27 -30 30 -10 4 -18 13 -18 21 0 8 -11 20 -25 26 -14 6 -25 15 -25 19 0
12 -168 179 -179 179 -5 0 -16 11 -25 25 -9 14 -23 25 -31 25 -8 0 -19 9 -25
19 -5 11 -24 22 -40 26 -17 4 -38 18 -46 31 -9 13 -23 24 -30 24 -8 0 -19 11
-24 25 -5 14 -17 25 -28 25 -10 0 -28 9 -39 20 -12 10 -33 22 -48 26 -15 4
-29 14 -33 23 -7 21 -22 31 -48 31 -11 0 -31 11 -44 25 -13 14 -31 25 -40 25
-9 0 -25 9 -34 19 -10 11 -31 23 -47 26 -16 4 -34 15 -39 25 -6 11 -27 21 -51
25 -27 5 -43 13 -46 25 -3 13 -18 19 -51 23 -29 3 -51 12 -61 25 -11 13 -33
21 -71 25 -38 5 -60 13 -72 27 -12 15 -28 20 -68 20 -40 0 -56 5 -75 24 -21
21 -35 24 -107 28 -65 2 -90 8 -113 25 -26 18 -49 22 -165 27 -74 3 -153 10
-175 15 -22 5 -146 12 -275 15 -206 6 -239 4 -270 -10z"/>
<path d="M3693 14793 c-17 -3 -23 -14 -29 -49 -4 -27 -13 -48 -24 -54 -10 -5
-21 -26 -24 -45 -4 -20 -14 -39 -24 -42 -9 -3 -29 -17 -44 -31 -24 -22 -38
-26 -127 -30 -86 -4 -101 -7 -106 -23 -3 -10 -15 -21 -26 -24 -38 -12 -20 -46
76 -141 l95 -94 0 -136 c0 -74 5 -144 10 -155 15 -28 41 -24 101 17 69 47 110
64 151 64 53 -1 167 -35 181 -54 15 -21 94 -32 117 -17 20 14 17 118 -4 159
-39 75 -11 139 109 249 51 47 66 67 63 85 -2 18 -11 24 -40 29 -21 3 -46 13
-55 21 -10 8 -43 18 -74 21 -57 5 -68 12 -142 85 -15 15 -35 51 -43 81 -25 84
-54 101 -141 84z"/>
<path d="M11025 12773 c-11 -15 -30 -39 -42 -54 -13 -15 -23 -40 -23 -58 0
-23 -10 -42 -35 -66 -19 -19 -38 -35 -44 -35 -5 0 -16 -11 -25 -25 -15 -23
-22 -25 -99 -25 -81 0 -84 -1 -115 -33 -46 -47 -42 -75 16 -128 101 -93 102
-95 102 -238 0 -155 3 -168 42 -176 23 -6 46 2 107 33 42 22 93 43 113 47 48
9 174 -28 188 -56 6 -10 20 -19 31 -19 11 0 35 -6 53 -14 32 -13 34 -13 45 11
9 19 9 55 -1 148 -14 147 -9 166 68 231 55 47 76 74 88 110 5 17 1 24 -24 34
-17 7 -34 20 -39 28 -7 11 -31 17 -96 20 -80 4 -87 6 -95 28 -5 13 -15 24 -22
24 -12 0 -39 47 -104 183 -31 65 -57 74 -89 30z"/>
<path d="M14470 11160 c0 -6 -11 -22 -24 -35 -13 -13 -27 -38 -31 -56 -4 -19
-30 -54 -64 -89 -55 -56 -59 -57 -120 -62 -45 -3 -67 -10 -76 -22 -7 -9 -29
-22 -49 -27 -31 -9 -36 -14 -36 -40 0 -25 14 -44 73 -102 92 -90 100 -116 79
-238 -9 -52 -12 -103 -8 -132 7 -43 9 -47 36 -47 17 0 57 19 104 51 88 58 123
67 209 49 74 -15 97 -26 97 -45 0 -20 109 -33 121 -14 5 8 8 68 8 134 -1 66 4
133 10 150 6 17 48 64 92 106 69 63 80 79 74 98 -4 14 -17 24 -36 28 -16 3
-36 15 -44 26 -11 16 -28 21 -92 25 -69 4 -82 8 -113 35 -31 27 -99 145 -100
172 0 16 -55 45 -84 45 -14 0 -26 -5 -26 -10z"/>
<path d="M15566 9445 c-3 -8 -15 -15 -26 -15 -11 0 -20 -7 -20 -15 0 -9 -12
-27 -26 -42 -17 -17 -27 -40 -31 -74 -4 -33 -12 -54 -25 -63 -12 -9 -22 -31
-25 -56 -4 -29 -12 -44 -23 -47 -12 -3 -19 -18 -23 -46 -3 -25 -14 -49 -26
-59 -12 -9 -21 -21 -21 -27 0 -27 -25 -61 -51 -66 -15 -3 -39 -17 -54 -31 -24
-22 -34 -24 -131 -24 -81 0 -115 -4 -147 -19 -26 -11 -78 -21 -135 -25 -116
-7 -132 -15 -132 -64 0 -33 8 -45 63 -98 35 -34 72 -64 84 -68 11 -4 28 -15
38 -26 10 -11 24 -20 32 -20 7 0 19 -11 25 -25 6 -14 16 -25 22 -25 11 -1 48
-40 103 -109 28 -35 28 -35 28 -192 0 -151 -1 -158 -23 -182 -19 -20 -24 -39
-28 -98 -2 -41 -6 -90 -9 -109 -3 -19 -2 -48 3 -65 13 -47 49 -45 135 7 40 23
88 51 107 61 19 9 46 24 60 32 14 8 73 38 133 65 97 46 112 51 155 45 26 -4
59 -15 74 -26 15 -10 46 -21 70 -25 26 -4 52 -16 66 -30 14 -15 34 -24 52 -24
17 0 34 -8 43 -20 7 -10 25 -24 40 -29 15 -6 27 -15 27 -21 0 -6 18 -17 39
-26 22 -8 42 -22 45 -30 3 -9 20 -14 44 -14 34 0 41 4 52 30 7 16 10 44 7 62
-3 18 -10 74 -17 123 -6 50 -21 111 -32 137 -15 36 -20 71 -21 160 l-2 113 47
61 c47 61 127 142 203 205 89 74 155 146 149 163 -3 9 -11 16 -18 16 -6 0 -17
9 -24 20 -11 18 -23 20 -116 20 -92 0 -106 2 -132 23 -25 19 -44 23 -144 27
-110 5 -117 7 -162 38 -33 23 -49 42 -54 65 -3 17 -15 38 -25 45 -13 9 -19 25
-19 51 0 27 -7 46 -25 65 -14 15 -25 37 -25 50 0 13 -11 43 -24 68 -13 24 -27
55 -31 68 -11 33 -66 122 -72 116 -3 -3 -14 -1 -23 4 -13 7 -20 6 -24 -5z"/>
</g>
</svg>
